<mxfile host="Electron" modified="2024-07-01T14:49:45.817Z" agent="Mozilla/5.0 (Windows NT 10.0; Win64; x64) AppleWebKit/537.36 (KHTML, like Gecko) draw.io/24.6.1 Chrome/124.0.6367.207 Electron/30.0.6 Safari/537.36" etag="-5de4R0rl7bi4aXSm51a" version="24.6.1" type="device">
  <diagram name="Page-1" id="wDBdlok4owlG9jAOKffC">
    <mxGraphModel dx="2303" dy="799" grid="1" gridSize="10" guides="1" tooltips="1" connect="1" arrows="1" fold="1" page="1" pageScale="1" pageWidth="1169" pageHeight="827" math="0" shadow="0">
      <root>
        <mxCell id="0" />
        <mxCell id="1" parent="0" />
        <mxCell id="ZhQ0MyFdHs8SbyfFVafv-23" value="" style="rounded=1;whiteSpace=wrap;html=1;fillColor=#589151;" parent="1" vertex="1">
          <mxGeometry x="-379" y="50" width="420" height="240" as="geometry" />
        </mxCell>
        <mxCell id="ZhQ0MyFdHs8SbyfFVafv-24" value="&lt;font color=&quot;#ffffff&quot;&gt;&lt;span style=&quot;font-size: 25px;&quot;&gt;&lt;b&gt;Подбор персонала под задачу&lt;/b&gt;&lt;/span&gt;&lt;/font&gt;" style="text;html=1;align=center;verticalAlign=middle;whiteSpace=wrap;rounded=0;" parent="1" vertex="1">
          <mxGeometry x="-339" y="71" width="340" height="30" as="geometry" />
        </mxCell>
        <mxCell id="ZhQ0MyFdHs8SbyfFVafv-25" value="&lt;font style=&quot;font-size: 18px;&quot;&gt;Матчинг клиентов и воркеров&lt;/font&gt;" style="rounded=1;whiteSpace=wrap;html=1;" parent="1" vertex="1">
          <mxGeometry x="-269" y="140" width="200" height="110" as="geometry" />
        </mxCell>
        <mxCell id="ZhQ0MyFdHs8SbyfFVafv-35" value="" style="rounded=1;whiteSpace=wrap;html=1;fillColor=#5D54A8;" parent="1" vertex="1">
          <mxGeometry x="241" y="47" width="420" height="240" as="geometry" />
        </mxCell>
        <mxCell id="ZhQ0MyFdHs8SbyfFVafv-36" value="&lt;font style=&quot;font-size: 18px;&quot;&gt;Миграция из HCB&lt;/font&gt;" style="rounded=1;whiteSpace=wrap;html=1;" parent="1" vertex="1">
          <mxGeometry x="351" y="137" width="200" height="110" as="geometry" />
        </mxCell>
        <mxCell id="ZhQ0MyFdHs8SbyfFVafv-37" value="&lt;font color=&quot;#ffffff&quot;&gt;&lt;span style=&quot;font-size: 25px;&quot;&gt;&lt;b&gt;Привлечение клиентов&lt;/b&gt;&lt;/span&gt;&lt;/font&gt;" style="text;html=1;align=center;verticalAlign=middle;whiteSpace=wrap;rounded=0;" parent="1" vertex="1">
          <mxGeometry x="271" y="68" width="360" height="30" as="geometry" />
        </mxCell>
        <mxCell id="dl435xvkilooygga4oxX-1" value="" style="rounded=1;whiteSpace=wrap;html=1;fillColor=#589151;" parent="1" vertex="1">
          <mxGeometry x="-380" y="440" width="420" height="240" as="geometry" />
        </mxCell>
        <mxCell id="dl435xvkilooygga4oxX-3" value="&lt;font style=&quot;&quot;&gt;&lt;span style=&quot;text-align: left; caret-color: rgb(55, 53, 47); white-space-collapse: preserve; background-color: rgb(255, 255, 255);&quot;&gt;&lt;font face=&quot;Helvetica&quot; style=&quot;font-size: 18px;&quot;&gt;Скоринг потенциальных работников&lt;br/&gt;(найм)&lt;/font&gt;&lt;/span&gt;&lt;/font&gt;" style="rounded=1;whiteSpace=wrap;html=1;" parent="1" vertex="1">
          <mxGeometry x="-270" y="530" width="200" height="110" as="geometry" />
        </mxCell>
        <mxCell id="dl435xvkilooygga4oxX-4" value="" style="rounded=1;whiteSpace=wrap;html=1;fillColor=#A3A3A3;" parent="1" vertex="1">
          <mxGeometry x="240" y="360" width="1030" height="650" as="geometry" />
        </mxCell>
        <mxCell id="dl435xvkilooygga4oxX-5" value="&lt;font color=&quot;#ffffff&quot;&gt;&lt;span style=&quot;font-size: 25px;&quot;&gt;&lt;b&gt;Управление заказами&lt;/b&gt;&lt;/span&gt;&lt;/font&gt;" style="text;html=1;align=center;verticalAlign=middle;whiteSpace=wrap;rounded=0;" parent="1" vertex="1">
          <mxGeometry x="320" y="384" width="880" height="30" as="geometry" />
        </mxCell>
        <mxCell id="dl435xvkilooygga4oxX-27" style="edgeStyle=orthogonalEdgeStyle;rounded=0;orthogonalLoop=1;jettySize=auto;html=1;exitX=0;exitY=0.25;exitDx=0;exitDy=0;entryX=1;entryY=0.5;entryDx=0;entryDy=0;strokeWidth=3;curved=1;" parent="1" source="dl435xvkilooygga4oxX-6" target="ZhQ0MyFdHs8SbyfFVafv-25" edge="1">
          <mxGeometry relative="1" as="geometry" />
        </mxCell>
        <mxCell id="dl435xvkilooygga4oxX-6" value="&lt;font style=&quot;font-size: 18px;&quot;&gt;Документооборот&lt;/font&gt;&lt;div&gt;&lt;font style=&quot;font-size: 18px;&quot;&gt;(планирование визитов)&lt;/font&gt;&lt;/div&gt;" style="rounded=1;whiteSpace=wrap;html=1;" parent="1" vertex="1">
          <mxGeometry x="350" y="530" width="200" height="110" as="geometry" />
        </mxCell>
        <mxCell id="dl435xvkilooygga4oxX-7" value="&lt;span style=&quot;font-size: 18px;&quot;&gt;Расчет и списание средств у клиентов&lt;/span&gt;" style="rounded=1;whiteSpace=wrap;html=1;" parent="1" vertex="1">
          <mxGeometry x="965" y="450" width="200" height="110" as="geometry" />
        </mxCell>
        <mxCell id="dl435xvkilooygga4oxX-8" value="&lt;span style=&quot;font-size: 18px;&quot;&gt;Расчет и выплата зп сотрудн&lt;/span&gt;&lt;span style=&quot;font-size: 18px; background-color: initial;&quot;&gt;иков&lt;/span&gt;" style="rounded=1;whiteSpace=wrap;html=1;" parent="1" vertex="1">
          <mxGeometry x="965" y="640" width="200" height="110" as="geometry" />
        </mxCell>
        <mxCell id="dl435xvkilooygga4oxX-9" value="&lt;span style=&quot;font-size: 18px;&quot;&gt;Контроль качества работы&lt;/span&gt;" style="rounded=1;whiteSpace=wrap;html=1;" parent="1" vertex="1">
          <mxGeometry x="965" y="827" width="200" height="110" as="geometry" />
        </mxCell>
        <mxCell id="dl435xvkilooygga4oxX-10" value="" style="rounded=1;whiteSpace=wrap;html=1;fillColor=#5D54A8;" parent="1" vertex="1">
          <mxGeometry x="-380" y="1130" width="420" height="240" as="geometry" />
        </mxCell>
        <mxCell id="dl435xvkilooygga4oxX-11" value="&lt;font style=&quot;font-size: 18px;&quot;&gt;Сборка и выдача расходников&lt;/font&gt;" style="rounded=1;whiteSpace=wrap;html=1;" parent="1" vertex="1">
          <mxGeometry x="-270" y="1210" width="200" height="110" as="geometry" />
        </mxCell>
        <mxCell id="dl435xvkilooygga4oxX-14" value="" style="rounded=1;whiteSpace=wrap;html=1;fillColor=#A3A3A3;" parent="1" vertex="1">
          <mxGeometry x="199" y="1121" width="420" height="240" as="geometry" />
        </mxCell>
        <mxCell id="dl435xvkilooygga4oxX-15" value="&lt;font color=&quot;#ffffff&quot;&gt;&lt;span style=&quot;font-size: 25px;&quot;&gt;&lt;b&gt;Увеличение лояльности клиентов&lt;/b&gt;&lt;/span&gt;&lt;/font&gt;" style="text;html=1;align=center;verticalAlign=middle;whiteSpace=wrap;rounded=0;" parent="1" vertex="1">
          <mxGeometry x="239" y="1142" width="330" height="30" as="geometry" />
        </mxCell>
        <mxCell id="dl435xvkilooygga4oxX-16" value="&lt;span style=&quot;font-size: 18px;&quot;&gt;Производство Fur-tune печенья&lt;/span&gt;" style="rounded=1;whiteSpace=wrap;html=1;" parent="1" vertex="1">
          <mxGeometry x="309" y="1211" width="200" height="110" as="geometry" />
        </mxCell>
        <mxCell id="dl435xvkilooygga4oxX-17" value="" style="rounded=1;whiteSpace=wrap;html=1;fillColor=#5D54A8;" parent="1" vertex="1">
          <mxGeometry x="850" y="1121" width="420" height="240" as="geometry" />
        </mxCell>
        <mxCell id="dl435xvkilooygga4oxX-18" value="&lt;font style=&quot;font-size: 18px;&quot;&gt;Тотализатор&lt;/font&gt;" style="rounded=1;whiteSpace=wrap;html=1;" parent="1" vertex="1">
          <mxGeometry x="960" y="1201" width="200" height="110" as="geometry" />
        </mxCell>
        <mxCell id="dl435xvkilooygga4oxX-19" value="&lt;font color=&quot;#ffffff&quot;&gt;&lt;span style=&quot;font-size: 25px;&quot;&gt;&lt;b&gt;Увеличение мотивации менеджеров&lt;/b&gt;&lt;/span&gt;&lt;/font&gt;" style="text;html=1;align=center;verticalAlign=middle;whiteSpace=wrap;rounded=0;" parent="1" vertex="1">
          <mxGeometry x="890" y="1139" width="350" height="30" as="geometry" />
        </mxCell>
        <mxCell id="dl435xvkilooygga4oxX-22" style="edgeStyle=orthogonalEdgeStyle;rounded=0;orthogonalLoop=1;jettySize=auto;html=1;exitX=1;exitY=0.5;exitDx=0;exitDy=0;entryX=0;entryY=0.5;entryDx=0;entryDy=0;strokeWidth=3;curved=1;" parent="1" source="dl435xvkilooygga4oxX-3" target="dl435xvkilooygga4oxX-6" edge="1">
          <mxGeometry relative="1" as="geometry" />
        </mxCell>
        <mxCell id="dl435xvkilooygga4oxX-24" style="edgeStyle=orthogonalEdgeStyle;rounded=0;orthogonalLoop=1;jettySize=auto;html=1;exitX=0.5;exitY=1;exitDx=0;exitDy=0;entryX=0.5;entryY=0;entryDx=0;entryDy=0;strokeWidth=3;curved=1;" parent="1" source="ZhQ0MyFdHs8SbyfFVafv-36" target="dl435xvkilooygga4oxX-6" edge="1">
          <mxGeometry relative="1" as="geometry" />
        </mxCell>
        <mxCell id="dl435xvkilooygga4oxX-25" style="edgeStyle=orthogonalEdgeStyle;rounded=0;orthogonalLoop=1;jettySize=auto;html=1;exitX=0.5;exitY=0;exitDx=0;exitDy=0;entryX=0.5;entryY=1;entryDx=0;entryDy=0;strokeWidth=3;curved=1;" parent="1" source="dl435xvkilooygga4oxX-3" target="ZhQ0MyFdHs8SbyfFVafv-25" edge="1">
          <mxGeometry relative="1" as="geometry" />
        </mxCell>
        <mxCell id="dl435xvkilooygga4oxX-28" style="edgeStyle=orthogonalEdgeStyle;rounded=0;orthogonalLoop=1;jettySize=auto;html=1;exitX=0;exitY=0.75;exitDx=0;exitDy=0;entryX=0.5;entryY=0;entryDx=0;entryDy=0;strokeWidth=3;curved=1;" parent="1" source="dl435xvkilooygga4oxX-6" target="dl435xvkilooygga4oxX-11" edge="1">
          <mxGeometry relative="1" as="geometry" />
        </mxCell>
        <mxCell id="dl435xvkilooygga4oxX-29" style="edgeStyle=orthogonalEdgeStyle;rounded=0;orthogonalLoop=1;jettySize=auto;html=1;exitX=1;exitY=0.5;exitDx=0;exitDy=0;strokeWidth=3;curved=1;" parent="1" source="dl435xvkilooygga4oxX-11" target="dl435xvkilooygga4oxX-16" edge="1">
          <mxGeometry relative="1" as="geometry" />
        </mxCell>
        <mxCell id="dl435xvkilooygga4oxX-33" style="edgeStyle=orthogonalEdgeStyle;rounded=0;orthogonalLoop=1;jettySize=auto;html=1;exitX=0.75;exitY=1;exitDx=0;exitDy=0;entryX=0;entryY=0.25;entryDx=0;entryDy=0;strokeWidth=3;curved=1;" parent="1" source="dl435xvkilooygga4oxX-6" target="dl435xvkilooygga4oxX-18" edge="1">
          <mxGeometry relative="1" as="geometry" />
        </mxCell>
        <mxCell id="dl435xvkilooygga4oxX-32" style="edgeStyle=orthogonalEdgeStyle;rounded=0;orthogonalLoop=1;jettySize=auto;html=1;exitX=1;exitY=0.75;exitDx=0;exitDy=0;entryX=0;entryY=0.5;entryDx=0;entryDy=0;curved=1;strokeWidth=3;" parent="1" source="dl435xvkilooygga4oxX-6" target="dl435xvkilooygga4oxX-9" edge="1">
          <mxGeometry relative="1" as="geometry" />
        </mxCell>
        <mxCell id="dl435xvkilooygga4oxX-31" style="edgeStyle=orthogonalEdgeStyle;rounded=0;orthogonalLoop=1;jettySize=auto;html=1;exitX=1;exitY=0.5;exitDx=0;exitDy=0;entryX=0;entryY=0.5;entryDx=0;entryDy=0;strokeWidth=3;curved=1;" parent="1" source="dl435xvkilooygga4oxX-6" target="dl435xvkilooygga4oxX-8" edge="1">
          <mxGeometry relative="1" as="geometry" />
        </mxCell>
        <mxCell id="dl435xvkilooygga4oxX-30" style="edgeStyle=orthogonalEdgeStyle;rounded=0;orthogonalLoop=1;jettySize=auto;html=1;exitX=1;exitY=0.25;exitDx=0;exitDy=0;entryX=0;entryY=0.5;entryDx=0;entryDy=0;strokeWidth=3;curved=1;" parent="1" source="dl435xvkilooygga4oxX-6" target="dl435xvkilooygga4oxX-7" edge="1">
          <mxGeometry relative="1" as="geometry" />
        </mxCell>
        <mxCell id="dl435xvkilooygga4oxX-2" value="&lt;font color=&quot;#ffffff&quot;&gt;&lt;span style=&quot;font-size: 25px;&quot;&gt;&lt;b&gt;Привлечение персонала&lt;/b&gt;&lt;/span&gt;&lt;/font&gt;" style="text;html=1;align=center;verticalAlign=middle;whiteSpace=wrap;rounded=0;" parent="1" vertex="1">
          <mxGeometry x="-340" y="461" width="340" height="30" as="geometry" />
        </mxCell>
        <mxCell id="dl435xvkilooygga4oxX-12" value="&lt;font color=&quot;#ffffff&quot;&gt;&lt;span style=&quot;font-size: 25px;&quot;&gt;&lt;b&gt;Увеличение скорости обслуживания&lt;/b&gt;&lt;/span&gt;&lt;/font&gt;" style="text;html=1;align=center;verticalAlign=middle;whiteSpace=wrap;rounded=0;" parent="1" vertex="1">
          <mxGeometry x="-340" y="1148" width="350" height="30" as="geometry" />
        </mxCell>
        <mxCell id="zYUZGrL-Qpc2NXHIfbr1-1" value="&lt;span style=&quot;white-space-collapse: preserve; text-align: left; caret-color: rgb(55, 53, 47); background-color: rgb(255, 255, 255);&quot;&gt;&lt;font style=&quot;font-size: 18px;&quot; face=&quot;Helvetica&quot;&gt;т&lt;/font&gt;&lt;/span&gt;&lt;span style=&quot;font-size: 18px;&quot;&gt;естирование воркеров&lt;/span&gt;" style="rounded=0;whiteSpace=wrap;html=1;fillColor=#fff2cc;strokeColor=#d6b656;" vertex="1" parent="1">
          <mxGeometry x="-340" y="620" width="120" height="60" as="geometry" />
        </mxCell>
      </root>
    </mxGraphModel>
  </diagram>
</mxfile>
